<svg width="792" height="171" viewBox="0 0 792 171" fill="none" xmlns="http://www.w3.org/2000/svg">
<rect width="792" height="171" fill="black"/>
<path d="M110.488 131.152C107.8 131.152 105.4 130.832 103.288 130.192C101.24 129.616 99.608 128.368 98.392 126.448C97.176 124.464 96.568 121.488 96.568 117.52V85.072C96.568 81.424 97.176 78.704 98.392 76.912C99.608 75.12 101.272 73.936 103.384 73.36C105.56 72.784 107.96 72.496 110.584 72.496C113.336 72.496 115.736 72.816 117.784 73.456C119.832 74.032 121.432 75.216 122.584 77.008C123.8 78.8 124.408 81.488 124.408 85.072V94.48H119.8V85.072C119.8 82.256 119.384 80.176 118.552 78.832C117.784 77.488 116.696 76.592 115.288 76.144C113.944 75.696 112.376 75.472 110.584 75.472C108.792 75.472 107.192 75.696 105.784 76.144C104.376 76.592 103.256 77.488 102.424 78.832C101.656 80.176 101.272 82.256 101.272 85.072V118.576C101.272 121.392 101.656 123.472 102.424 124.816C103.256 126.16 104.376 127.056 105.784 127.504C107.192 127.952 108.792 128.176 110.584 128.176C112.376 128.176 113.944 127.952 115.288 127.504C116.696 127.056 117.784 126.16 118.552 124.816C119.384 123.472 119.8 121.392 119.8 118.576V110.704H124.408V117.52C124.408 121.552 123.8 124.528 122.584 126.448C121.432 128.368 119.8 129.616 117.688 130.192C115.64 130.832 113.24 131.152 110.488 131.152ZM140.286 130V76.72H130.494V73.264H154.878V76.72H144.894V130H140.286ZM157.601 130L170.753 73.264H176.417L189.473 130H184.481L181.121 116.08H165.569L162.305 130H157.601ZM165.857 113.392H180.929L173.441 79.888L165.857 113.392ZM197.653 130V73.264H202.357V98.512H220.981V73.264H225.589V130H220.981V102.064H202.357V130H197.653ZM263.966 137.584V130H238.622V73.264H243.614V126.448H260.51V73.264H265.502V127.312H267.998V137.584H263.966ZM280.059 130V73.264H284.379V120.304L303.771 73.264H308.091V130H303.771V84.304L284.571 130H280.059Z" fill="white"/>
<path d="M347.618 130H342.818V103.408H334.85C332.866 103.408 331.426 104.176 330.53 105.712C329.634 107.248 328.898 108.944 328.322 110.8L322.85 130H317.762L323.714 110.512C324.546 107.696 325.474 105.616 326.498 104.272C327.522 102.864 329.058 102.16 331.106 102.16V102.256C327.778 102.192 325.09 101.296 323.042 99.568C320.994 97.84 319.97 95.28 319.97 91.888V82.672C319.97 79.344 320.962 76.944 322.946 75.472C324.994 74 327.522 73.264 330.53 73.264H347.618V130ZM342.818 99.952V76.144H332.066C329.57 76.144 327.682 76.752 326.402 77.968C325.186 79.184 324.578 81.008 324.578 83.44V91.312C324.578 94.128 325.218 96.272 326.498 97.744C327.842 99.216 330.114 99.952 333.314 99.952H342.818Z" fill="#FF0000"/>
<path d="M337.582 130V73.264H347.374V107.728L359.182 73.264H368.974V130H359.086V97.84L347.374 130H337.582Z" fill="#FF0000"/>
<path d="M378.877 130V73.264H390.013V96.496H399.325V73.264H410.461V130H399.325V104.752H390.013V130H378.877ZM426.117 130V81.136H417.285V73.264H446.085V81.136H437.253V130H426.117ZM452.936 130V73.264H479.048V81.136H464.552V96.304H476.84V105.04H464.552V122.32H479.048V130H452.936ZM486.918 130V73.264H507.078C510.854 73.264 513.702 74.128 515.622 75.856C517.606 77.52 518.598 79.856 518.598 82.864V92.656C518.598 95.216 518.278 97.616 517.638 99.856C516.998 102.032 515.846 103.792 514.182 105.136C512.518 106.48 510.118 107.152 506.982 107.152H498.534V130H486.918ZM498.534 101.008H502.854C504.39 101.008 505.542 100.272 506.31 98.8C507.078 97.328 507.462 94.896 507.462 91.504V87.664C507.462 84.656 507.142 82.512 506.502 81.232C505.862 79.952 504.934 79.312 503.718 79.312H498.534V101.008ZM526.526 130V73.36H537.47V88.144H545.918C548.03 88.144 549.886 88.464 551.486 89.104C553.15 89.744 554.462 90.896 555.422 92.56C556.446 94.16 556.958 96.464 556.958 99.472V115.12C556.958 118.32 556.67 120.912 556.094 122.896C555.518 124.88 554.686 126.384 553.598 127.408C552.51 128.368 551.198 129.04 549.662 129.424C548.126 129.808 546.366 130 544.382 130H526.526ZM537.47 124.24H541.886C543.102 124.24 543.998 123.952 544.574 123.376C545.15 122.8 545.534 121.84 545.726 120.496C545.918 119.152 546.014 117.232 546.014 114.736V101.872C546.014 100.4 545.918 99.152 545.726 98.128C545.598 97.104 545.214 96.336 544.574 95.824C543.998 95.248 543.07 94.96 541.79 94.96H537.47V124.24ZM566.039 130V73.264H592.151V81.136H577.655V96.304H589.943V105.04H577.655V122.32H592.151V130H566.039ZM600.022 130V73.264H620.182C623.958 73.264 626.806 74.128 628.726 75.856C630.71 77.52 631.702 79.856 631.702 82.864V92.656C631.702 95.216 631.382 97.616 630.742 99.856C630.102 102.032 628.95 103.792 627.286 105.136C625.622 106.48 623.222 107.152 620.086 107.152H611.638V130H600.022ZM611.638 101.008H615.958C617.494 101.008 618.646 100.272 619.414 98.8C620.182 97.328 620.566 94.896 620.566 91.504V87.664C620.566 84.656 620.246 82.512 619.606 81.232C618.966 79.952 618.038 79.312 616.822 79.312H611.638V101.008ZM639.629 130V73.264H650.765V96.496H660.077V73.264H671.213V130H660.077V104.752H650.765V130H639.629ZM677.942 130L688.118 73.264H704.054L714.038 130H701.558L699.83 119.536H691.574L689.942 130H677.942ZM691.766 113.968H699.734L695.798 83.152L691.766 113.968ZM752.976 130H741.359V105.712H738.096C737.136 105.712 736.432 106.256 735.984 107.344C735.536 108.368 735.12 109.648 734.736 111.184L730.608 130H718.224L723.6 110.416C724.24 107.92 725.008 106.128 725.904 105.04C726.864 103.888 728.432 103.152 730.608 102.832C727.216 102.512 724.72 101.328 723.12 99.28C721.584 97.232 720.816 94.704 720.816 91.696V82.864C720.816 79.856 721.776 77.52 723.696 75.856C725.616 74.128 728.464 73.264 732.24 73.264H752.976V130ZM741.359 97.936V79.312H736.08C734.544 79.312 733.424 79.728 732.72 80.56C732.08 81.392 731.76 82.832 731.76 84.88V91.696C731.76 93.872 732.144 95.472 732.912 96.496C733.68 97.456 734.928 97.936 736.656 97.936H741.359Z" fill="white"/>
</svg>
